<?xml version="1.0" encoding="UTF-8" standalone="no"?>
<svg
   xmlns:dc="http://purl.org/dc/elements/1.1/"
   xmlns:cc="http://creativecommons.org/ns#"
   xmlns:rdf="http://www.w3.org/1999/02/22-rdf-syntax-ns#"
   xmlns:svg="http://www.w3.org/2000/svg"
   xmlns="http://www.w3.org/2000/svg"
   xmlns:sodipodi="http://sodipodi.sourceforge.net/DTD/sodipodi-0.dtd"
   xmlns:inkscape="http://www.inkscape.org/namespaces/inkscape"
   version="1.1"
   x="0px"
   y="0px"
   viewBox="0 0 100 100"
   enable-background="new 0 0 100 100"
   xml:space="preserve"
   id="svg116"
   sodipodi:docname="default-user.svg"
   inkscape:version="0.92.3 (3ce5693, 2018-03-11)"><metadata
     id="metadata122"><rdf:RDF><cc:Work
         rdf:about=""><dc:format>image/svg+xml</dc:format><dc:type
           rdf:resource="http://purl.org/dc/dcmitype/StillImage" /><dc:title></dc:title></cc:Work></rdf:RDF></metadata><defs
     id="defs120" /><sodipodi:namedview
     pagecolor="#ffffff"
     bordercolor="#666666"
     borderopacity="1"
     objecttolerance="10"
     gridtolerance="10"
     guidetolerance="10"
     inkscape:pageopacity="0"
     inkscape:pageshadow="2"
     inkscape:window-width="1563"
     inkscape:window-height="876"
     id="namedview118"
     showgrid="false"
     inkscape:zoom="2.36"
     inkscape:cx="9.059322"
     inkscape:cy="-7.8069007"
     inkscape:window-x="37"
     inkscape:window-y="24"
     inkscape:window-maximized="1"
     inkscape:current-layer="svg116" /><path
     style="fill:#008000;fill-opacity:1;stroke-width:0.42372882"
     d="m -166.34971,127.32996 c 0,-5.28558 2.2669,-13.887 5.19678,-19.71841 5.45131,-10.849869 16.29186,-20.475669 27.6422,-24.544719 0.77319,-0.27719 0.69475,-0.44044 -0.89493,-1.8626 -3.81419,-3.41226 -6.86261,-8.48454 -8.00101,-13.31291 -0.81066,-3.43828 -0.80879,-9.21779 0.004,-12.41532 2.37296,-9.33518 10.13307,-17.09529 19.46825,-19.46825 3.19658,-0.81256 8.97676,-0.81474 12.41249,-0.005 5.73755,1.35278 11.738297,5.3691 15.136035,10.1306 7.648144,10.71792 6.790487,24.01813 -2.173111,33.69964 l -2.702074,2.91849 4.452612,2.12696 c 5.492594,2.62376 9.755962,5.53606 13.679017,9.34413 8.873755,8.613649 14.027695,19.625639 15.141,32.350509 l 0.28731,3.2839 h -49.824279 -49.82429 z"
     id="path929-3"
     inkscape:connector-curvature="0" /><rect
     style="fill:#ececec;fill-opacity:1;stroke-width:1.30110192"
     id="rect946"
     width="152.11867"
     height="108.47458"
     x="-26.271187"
     y="-0.84745759"
     ry="0" /><path
     style="fill:#000000;fill-opacity:0.73157895;stroke-width:0.39691189"
     d="m 2.9661017,94.115967 c 0,-4.839356 2.633856,-14.711221 5.3047596,-19.882626 4.5902277,-8.88759 13.3424647,-17.352483 22.1135957,-21.38759 1.650774,-0.759427 2.965811,-1.538046 2.922309,-1.730267 -0.04353,-0.192219 -1.002601,-1.361889 -2.131322,-2.599272 -2.463132,-2.700248 -4.324623,-5.848024 -5.649647,-9.553568 -0.83696,-2.340631 -0.985326,-3.452836 -1.016373,-7.619172 -0.0449,-6.02292 0.847277,-9.294116 3.798811,-13.928753 8.57875,-13.4707353 25.973526,-15.3302143 36.833134,-3.937414 7.301271,7.659752 9.118133,18.788759 4.639834,28.42086 -0.731623,1.573602 -2.527328,4.324635 -3.990456,6.113406 l -2.66023,3.252312 4.562333,2.476847 c 5.791215,3.14399 9.116269,5.625297 12.787192,9.542389 6.848902,7.30817 10.919374,15.909228 12.589471,26.601974 0.314298,2.01236 0.572173,4.253411 0.573027,4.980095 l 0.0018,1.321253 H 48.305105 2.9661017 Z"
     id="path948"
     inkscape:connector-curvature="0" /></svg>