<?xml version="1.0" encoding="UTF-8" standalone="no"?>
<svg
   xmlns:dc="http://purl.org/dc/elements/1.1/"
   xmlns:cc="http://creativecommons.org/ns#"
   xmlns:rdf="http://www.w3.org/1999/02/22-rdf-syntax-ns#"
   xmlns:svg="http://www.w3.org/2000/svg"
   xmlns="http://www.w3.org/2000/svg"
   xmlns:sodipodi="http://sodipodi.sourceforge.net/DTD/sodipodi-0.dtd"
   xmlns:inkscape="http://www.inkscape.org/namespaces/inkscape"
   viewBox="0 0 73.97 120.85000000000001"
   x="0px"
   y="0px"
   version="1.1"
   id="svg16"
   sodipodi:docname="diveSpot.svg"
   inkscape:version="0.92.3 (3ce5693, 2018-03-11)">
  <metadata
     id="metadata22">
    <rdf:RDF>
      <cc:Work
         rdf:about="">
        <dc:format>image/svg+xml</dc:format>
        <dc:type
           rdf:resource="http://purl.org/dc/dcmitype/StillImage" />
        <dc:title>Asset 7</dc:title>
      </cc:Work>
    </rdf:RDF>
  </metadata>
  <defs
     id="defs20" />
  <sodipodi:namedview
     pagecolor="#ffffff"
     bordercolor="#666666"
     borderopacity="1"
     objecttolerance="10"
     gridtolerance="10"
     guidetolerance="10"
     inkscape:pageopacity="0"
     inkscape:pageshadow="2"
     inkscape:window-width="1643"
     inkscape:window-height="1026"
     id="namedview18"
     showgrid="false"
     inkscape:zoom="1.9528341"
     inkscape:cx="36.985001"
     inkscape:cy="101.3911"
     inkscape:window-x="1637"
     inkscape:window-y="24"
     inkscape:window-maximized="1"
     inkscape:current-layer="svg16" />
  <title
     id="title2">Asset 7</title>
  <g
     data-name="Layer 2"
     id="g10">
    <g
       id="g8">
      <path
         d="M37,0A37,37,0,0,0,0,37c0,20,34.41,57.62,35.88,59.21a1.5,1.5,0,0,0,2.21,0C39.55,94.6,74,56.94,74,37A37,37,0,0,0,37,0Zm0,92.93C31,86.24,3,53.86,3,37a34,34,0,0,1,68,0C71,53.86,42.95,86.24,37,92.93Z"
         id="path4" />
      <path
         d="M37,24.13A12.85,12.85,0,1,0,49.84,37,12.87,12.87,0,0,0,37,24.13Zm0,22.71A9.85,9.85,0,1,1,46.84,37,9.87,9.87,0,0,1,37,46.84Z"
         id="path6" />
    </g>
  </g>
  <path
     style="fill:#0000ff;fill-opacity:1;stroke-width:0.51207626"
     d="M 33.028737,87.92586 C 17.887637,69.991777 6.6128851,52.381635 4.1944289,42.889283 2.495884,36.222557 3.6660134,28.082663 7.3344406,21.046088 10.227312,15.497142 16.260269,9.6512391 21.922037,6.9107859 31.927039,2.0680865 42.122654,2.0727131 52.040043,6.9244531 c 5.852002,2.8628897 12.187338,9.1206979 14.97078,14.7875809 3.741587,7.617585 4.593713,15.4088 2.436254,22.275317 -2.350963,7.482385 -9.238624,19.304733 -17.900046,30.724576 -4.631289,6.106228 -12.825687,16.096006 -14.008272,17.077462 -0.602769,0.500252 -1.408777,-0.190216 -4.510022,-3.863529 z m 9.281857,-39.115218 c 5.938587,-2.688186 8.948287,-9.222144 7.171346,-15.568753 -0.767925,-2.74276 -3.958925,-6.567708 -6.605634,-7.917958 -7.968244,-4.065095 -17.775522,1.227376 -18.833893,10.16366 -0.376131,3.175846 0.867906,7.424649 2.887497,9.861765 3.5013,4.225149 10.308843,5.757127 15.380684,3.461286 z"
     id="path829"
     inkscape:connector-curvature="0" />
</svg>
